<svg height='100px' width='100px'  fill="#ffffff" xmlns="http://www.w3.org/2000/svg" xmlns:xlink="http://www.w3.org/1999/xlink" version="1.1" x="0px" y="0px" viewBox="0 0 128 128" style="enable-background:new 0 0 128 128;" xml:space="preserve"><g><path d="M43.861084,54.6177368c2.2828369,0.5679932,6.2072144,0.6495972,12.0112305-2.1230469   C58.5509644,54.0762939,61.6640625,55,65,55c3.3267212,0,6.4319458-0.918457,9.1056519-2.4919434   c5.7896118,2.7597656,9.7049561,2.6768188,11.984314,2.1096802c1.2961426-0.3225098,1.9395752-1.7932129,1.322998-2.9780273   c-3.2238159-6.194519-3.1462402-14.9196167-3.1462402-14.9196167c0-10.6542358-8.6369629-19.2911987-19.2911987-19.2911987   s-19.2911987,8.6369629-19.2911987,19.2911987c0,0,0.0775757,8.7250977-3.1461792,14.9196167   C41.9215088,52.8245239,42.5649414,54.2952271,43.861084,54.6177368z M49.7369995,41.7976685   c12.5646973-0.2352905,18.3303223-6.0256348,20.9681396-11.2524414l9.3392334,6.9089355l0.9131165,0.6423912l-0.1591492,1.3140297   C79.6297607,47.0903931,73.0010986,53,65,53C57.8486328,53,51.7801514,48.28302,49.7369995,41.7976685z"></path><path d="M38.2753906,47.2275391c0.5004883,0.3173828,1.0595703,0.4765625,1.621582,0.4765625   c0.5058594,0,1.0146484-0.1289062,1.4853516-0.3876953C42.3798828,46.7666016,43,45.7197266,43,44.5849609V36v-1.3925781   C43,22.6933594,52.6928711,13,64.6074219,13h0.7851562C77.3071289,13,87,22.6933594,87,34.6074219v9.9775391   c0,1.1347656,0.6201172,2.1816406,1.6176758,2.7314453c0.4707031,0.2587891,0.9790039,0.3876953,1.4853516,0.3876953   c0.5620117,0,1.1210938-0.1591797,1.621582-0.4765625c2.1650391-1.3701172,4.7451172-4.1230469,4.7451172-9.4570312   c0-5.3349609-2.5800781-8.0878906-4.7451172-9.4580078c-0.9501953-0.6025391-2.1118164-0.6357422-3.1069336-0.0888672   c-0.1502686,0.0828247-0.2886963,0.1801758-0.4209595,0.2841187C85.5006104,18.4379883,76.3006592,11,65.3925781,11h-0.7851562   c-10.9080811,0-20.1080322,7.4379883-22.8041382,17.5077515c-0.1322632-0.1039429-0.2706909-0.2012939-0.4209595-0.2841187   c-0.9926758-0.5449219-2.1547852-0.5136719-3.1069336,0.0888672c-2.1650391,1.3701172-4.7451172,4.1230469-4.7451172,9.4580078   C33.5302734,43.1044922,36.1103516,45.8574219,38.2753906,47.2275391z M89,30.9550781   c0-0.4121094,0.2177734-0.7783203,0.5825195-0.9785156c0.097168-0.0537109,0.2885742-0.1386719,0.5249023-0.1386719   c0.1660156,0,0.3540039,0.0419922,0.5478516,0.1640625c2.53125,1.6025391,3.8144531,4.2158203,3.8144531,7.7685547   c0,3.5517578-1.2832031,6.1650391-3.8144531,7.7675781c-0.46875,0.296875-0.9072266,0.1171875-1.0727539,0.0253906   C89.2177734,45.3632812,89,44.9970703,89,44.5849609v-9.9775391V30.9550781z M39.3447266,30.0019531   c0.1938477-0.1220703,0.3818359-0.1640625,0.5478516-0.1640625c0.2363281,0,0.4277344,0.0849609,0.5249023,0.1386719   C40.7822266,30.1767578,41,30.5429688,41,30.9550781v3.6523438V36v8.5849609c0,0.4121094-0.2177734,0.7783203-0.5825195,0.9785156   c-0.1650391,0.0908203-0.6030273,0.2705078-1.0727539-0.0253906c-2.53125-1.6025391-3.8144531-4.2158203-3.8144531-7.7675781   C35.5302734,34.2177734,36.8134766,31.6044922,39.3447266,30.0019531z"></path><path d="M103.1914062,79.8775635c-1.2745972-5.8977051-4.4688721-10.7921753-7.7833862-14.5081787   c-4.6953125-5.2640991-11.4648438-8.2003174-18.5186768-8.2003174c-2.0766602,0-4.1217041,0.5081177-5.9569092,1.4799805   c-3.7261353,1.9732666-8.1876221,1.9732666-11.9137573,0h-0.000061c-1.835144-0.9718628-3.880249-1.4799805-5.9568481-1.4799805   c-7.053833,0-13.8234253,2.9362183-18.5186768,8.2003174c-4.2824097,4.8011475-8.3640747,11.569397-8.3640747,19.9269409   c0,0,0.3502197,13.7440186,11.7615967,13.7440186h2.2614136l0.4657593,2.0117188   c1.0760498,4.6481934,1.1068115,9.7266846,0.0899658,14.3882446c-0.2856445,1.3093262,0.7116089,2.5475464,2.0517578,2.5475464   h44.3320923c1.3400879,0,2.3373413-1.2382202,2.0517578-2.5475464c-1.0168457-4.6615601-0.986145-9.7399902,0.0899658-14.3882446   l0.4657593-2.0117188h2.2613525c6.520813,0,9.4298096-4.487854,10.7255249-8.3345337   C103.9091187,87.2229614,103.9677124,83.4697266,103.1914062,79.8775635z M72,63c1.1045532,0,2,0.8953857,2,2   c0,1.1045532-0.8954468,2-2,2s-2-0.8954468-2-2C70,63.8953857,70.8954468,63,72,63z M65,64c0-0.5527344,0.4477539-1,1-1   s1,0.4472656,1,1v7c0,0.5527344-0.4477539,1-1,1s-1-0.4472656-1-1V64z M88.8190918,87.449585v10.4267578   c-0.6210938,0.8878784-1.6364746,1.416748-2.7200317,1.416748h-0.5054321l0.0101929,0.0795288   c0.2635498,2.0621948-0.7832642,4.0708008-2.6245728,5.0359497l-0.03125,0.0164185   c-0.7307739,0.3830566-1.5223999,0.5687256-2.3074341,0.5687256c-1.3508911,0-2.6819458-0.5500488-3.6477051-1.5906982   l-4.4205933-4.7634888C72.1937866,98.2317505,71.6625977,98,71.1062622,98H58.8448486   c-0.5563354,0-1.0875854,0.2317505-1.4660034,0.6395264l-4.4205933,4.7634888   c-0.9658203,1.0407715-2.2966919,1.5906982-3.6477051,1.5906982c-0.7849121,0-1.5767822-0.18573-2.3074341-0.5687256   l-0.03125-0.0164185c-1.8413086-0.9651489-2.8881226-2.9737549-2.6245728-5.0359497l0.0101929-0.0795288h-1.8035278   c-0.6311035,0-1.2398071-0.2336426-1.7088013-0.6558838C40.3071899,98.1528931,40,97.4630127,40,96.7391357v-9.7005005   l0.0040894-0.0050049c-1.6033325-0.7252197-3.0529175-2.1512451-3.0529175-4.7367554c0-0.5527344,0.4477539-1,1-1s1,0.4472656,1,1   c0,1.9274292,1.255249,2.7538452,2.3688354,3.1113281l2.1137085-2.6109009   c0.743103-1.1054688,1.9876709-1.7684937,3.3197021-1.7684937h1.5170288   c1.4088135-1.4382935,3.3673096-2.3222656,5.5133057-2.3222656h0.0408936c1.0333252,0,2.024353,0.4105225,2.7550659,1.1411743   l0.0110474,0.0111084C57.3214722,80.5894775,58.3125,81,59.3458252,81h11.2594604   c1.0333252,0,2.024353-0.4105225,2.7550049-1.1411743l0.0111084-0.0111084   c0.7307129-0.7306519,1.7216797-1.1411743,2.7550659-1.1411743h0.0408325c2.1459961,0,4.1044922,0.8839722,5.5133057,2.3222656   h0.9677124c1.3319702,0,2.5765991,0.6630249,3.3197021,1.7684937l1.8896484,2.8110352   c1.1880493-0.1900635,3.2009277-0.8718262,3.2009277-3.3114624c0-0.5527344,0.4477539-1,1-1s1,0.4472656,1,1   C93.0585938,85.5165405,90.8133545,86.9437866,88.8190918,87.449585z"></path><path d="M83.5773926,99.2930908h-0.0105591c-2.9430542,0-5.6251831-1.6885376-6.8974609-4.3424072L75.161499,91.805542   c-0.3266602-0.6814575-1.0095215-1.1205444-1.7650757-1.1350098l-1.0385132-0.0199585   c-1.3162231-0.0252686-2.3699951-1.0994263-2.3699951-2.4158936c0-1.1548462,0.8117676-2.1151733,1.8931274-2.3547974h9.7779541   l0.2042236,0.0013428l-0.0001831-0.0013428h0.5168457c0.1750488,0,0.3312378-0.0569458,0.4743042-0.1359253   c0.1038818-0.057312,0.1959229-0.1275635,0.2730713-0.2165527c0.1518555-0.175354,0.2526245-0.3970947,0.2526245-0.647522   c0-0.5524292-0.4472656-0.9993286-0.9990845-0.9998169c-0.0003052,0-0.0006104-0.0001831-0.0009155-0.0001831h-0.3728027H81.272583   c-0.9465332-1.8900146-2.8918457-3.1733398-5.1052856-3.1733398h-0.0408325c-0.5064697,0-0.9827271,0.1972656-1.3409424,0.5554199   C73.6608276,82.3866577,72.1801758,83,70.6052856,83H59.3458252c-1.5748291,0-3.055481-0.6132812-4.1691895-1.7268677   c-0.3692627-0.3693237-0.84552-0.5665894-1.3519897-0.5665894c-2.244873,0-4.1974487,1.2833252-5.1456299,3.1733398h-1.1088867   h-0.1754761h-0.8926392H46.034668c-0.5522461,0-1,0.4472656-1,1s0.4477539,1,1,1h0.0001831l-0.0077515,0.0114136   l0.0431519-0.0003052l0.0014648-0.0111084h1.0078735h0.663147h0.3452759h9.4326782   c1.0813599,0.239624,1.8930664,1.1999512,1.8930664,2.3547974c0,1.3164673-1.053772,2.390625-2.3699341,2.4158936   l-1.0385132,0.0199585c-0.7555542,0.0144653-1.4384155,0.4535522-1.7650757,1.1350098l-1.5078735,3.1451416   c-1.1929321,2.4882202-3.6289673,4.1086426-6.3536987,4.3035889l-0.0475464,0.3718872   c-0.1567383,1.2268066,0.473877,2.4368286,1.5692749,3.0109863c0.4557495,0.2389526,0.9325562,0.3565674,1.4101562,0.3565674   c0.8255615,0,1.6207886-0.3466797,2.1817017-0.9511719l4.4205933-4.7634888C56.6672363,96.4661865,57.7359009,96,58.8448486,96   h12.2614136c1.1088257,0,2.1774902,0.4661255,2.9318848,1.2789307l4.4207153,4.7636108   c0.5609741,0.6044922,1.3561401,0.9511719,2.1817017,0.9511719c0.4776001,0,0.9544067-0.1176147,1.3789062-0.3401489   c1.1266479-0.5905762,1.7572632-1.8005981,1.6004639-3.0274048L83.5773926,99.2930908z"></path></g></svg>